<?xml version="1.0" encoding="UTF-8" standalone="no"?>
<!DOCTYPE svg PUBLIC "-//W3C//DTD SVG 1.1//EN" "http://www.w3.org/Graphics/SVG/1.1/DTD/svg11.dtd">
<svg width="100%" height="100%" viewBox="0 0 900 400" version="1.1" xmlns="http://www.w3.org/2000/svg" xmlns:xlink="http://www.w3.org/1999/xlink" xml:space="preserve" xmlns:serif="http://www.serif.com/" style="fill-rule:evenodd;clip-rule:evenodd;stroke-linejoin:round;stroke-miterlimit:1.41421;">
    <g transform="matrix(1,0,0,1,4.89027,0)">
        <g id="rest" transform="matrix(0.902979,0,0,0.902979,-31.683,49.2701)">
            <path d="M108,108L108,125L95,125L85,135L89,188L75,201L89,214L85,267L95,277L108,277L108,294L87,294L67,272L71,218L59,207L59,195L71,184L67,130L87,108L108,108Z" style="fill:rgb(26,184,138);"/>
            <path d="M697.731,108L697.731,125L710.731,125L720.731,135L716.731,188L730.731,201L716.731,214L720.731,267L710.731,277L697.731,277L697.731,294L718.731,294L738.731,272L734.731,218L746.731,207L746.731,195L734.731,184L738.731,130L718.731,108L697.731,108Z" style="fill:rgb(26,184,138);"/>
            <path d="M279.399,148.872L279.399,189.993L259.669,209.723L248.869,209.723L272.13,255.828L285.421,255.828L285.421,273.689L240.77,273.689L240.77,255.828L253.231,255.828L229.97,209.723L208.787,209.723L208.787,255.828L221.455,255.828L221.455,273.689L175.765,273.689L175.765,255.828L190.926,255.828L190.926,146.38L175.765,146.38L175.765,128.311L259.046,128.311L279.399,148.872ZM208.787,146.38L208.787,196.016L251.154,196.016L261.538,185.632L261.538,156.764L251.154,146.38L208.787,146.38Z" style="fill:rgb(2,159,198);fill-rule:nonzero;"/>
            <path d="M401.1,165.902L385.939,165.902L385.939,146.38L331.942,146.38L331.942,190.616L368.702,190.616L368.702,180.855L381.578,180.855L381.578,213.876L368.702,213.876L368.702,204.115L331.942,204.115L331.942,255.828L386.147,255.828L386.147,236.306L401.308,236.306L401.308,273.689L298.921,273.689L298.921,255.828L314.082,255.828L314.082,146.38L298.921,146.38L298.921,128.311L401.1,128.311L401.1,165.902Z" style="fill:rgb(2,159,198);fill-rule:nonzero;"/>
            <path d="M509.718,148.872L509.718,169.432L491.857,169.432L491.857,156.764L481.265,146.172L447.413,146.172L436.821,156.764L436.821,182.516L444.713,189.993L494.557,189.993L511.172,206.192L511.172,252.09L489.573,273.689L440.56,273.689L418.961,252.09L418.961,225.506L436.821,225.506L436.821,244.613L448.036,255.828L482.096,255.828L493.103,244.613L493.103,214.499L485.627,206.815L435.783,206.815L418.961,190.201L418.961,148.872L439.521,128.311L489.365,128.311L509.718,148.872Z" style="fill:rgb(2,159,198);fill-rule:nonzero;"/>
            <path d="M629.966,170.886L614.597,170.886L614.597,145.341L586.145,145.341L586.145,255.828L603.382,255.828L603.382,273.689L551.046,273.689L551.046,255.828L568.284,255.828L568.284,145.341L539.832,145.341L539.832,170.886L524.463,170.886L524.463,128.311L629.966,128.311L629.966,170.886Z" style="fill:rgb(2,159,198);fill-rule:nonzero;"/>
        </g>
        <g id="rocket" transform="matrix(3.82069,0,0,3.82069,81.0655,8.42068)">
            <g transform="matrix(1.2566,0,0,1.2566,-16.5447,1.54417)">
                <path d="M16,17.116C14.038,18.259 9.332,21.391 7.553,26.015C7.497,26.161 7.52,26.327 7.612,26.453C7.667,26.526 7.742,26.58 7.824,26.61C7.884,26.632 7.95,26.64 8.016,26.636L13.774,26.19C13.779,26.171 13.778,26.151 13.784,26.133L16,17.116Z" style="fill:rgb(31,31,31);fill-rule:nonzero;"/>
            </g>
            <g transform="matrix(1.2566,0,0,1.2566,-16.5447,1.54417)">
                <path d="M30.852,34.356C32.403,29.655 30.79,24.25 30.036,22.173L25.918,30.551C25.913,30.565 25.906,30.572 25.899,30.586L30.053,34.656C30.1,34.703 30.158,34.738 30.217,34.76C30.225,34.766 30.231,34.768 30.233,34.768C30.471,34.854 30.735,34.731 30.821,34.495C30.841,34.448 30.848,34.401 30.852,34.356Z" style="fill:rgb(31,31,31);fill-rule:nonzero;"/>
            </g>
            <g transform="matrix(1.2566,0,0,1.2566,-16.5447,1.54417)">
                <path d="M33.307,10.727C33.828,7.949 33.536,3.93 31.924,1.682C31.885,1.63 31.854,1.571 31.817,1.521C31.719,1.396 31.612,1.291 31.506,1.18C31.442,1.112 31.381,1.031 31.315,0.967C31.239,0.898 31.155,0.847 31.077,0.783C30.968,0.695 30.86,0.599 30.743,0.524C30.688,0.49 30.624,0.47 30.569,0.44C30.415,0.354 30.26,0.268 30.092,0.207C29.971,0.163 29.846,0.144 29.719,0.114C29.61,0.088 29.502,0.049 29.389,0.031C29.213,0.008 29.034,0.008 28.852,0.009C28.79,0.009 28.729,-0.002 28.666,0.001C28.52,0.009 28.376,0.039 28.231,0.061C28.127,0.077 28.027,0.08 27.924,0.103C27.862,0.116 27.8,0.142 27.736,0.158C25.804,0.653 23.806,2.289 22.319,4.103C22.069,4.405 21.841,4.715 21.625,5.023C21.172,5.666 20.786,6.306 20.506,6.909C20.401,7.131 20.311,7.346 20.235,7.555L15.558,26.592C15.457,26.941 15.644,27.308 15.983,27.432L23.4,30.13C23.742,30.255 24.121,30.093 24.267,29.761L32.936,12.129C33.085,11.719 33.208,11.246 33.307,10.727ZM24.523,15.506C23.13,14.999 22.411,13.459 22.918,12.065C23.425,10.672 24.966,9.953 26.362,10.462C27.753,10.969 28.473,12.509 27.966,13.902C27.457,15.294 25.917,16.011 24.523,15.506Z" style="fill:rgb(31,31,31);fill-rule:nonzero;"/>
            </g>
            <g transform="matrix(1.2566,0,0,1.2566,-16.5447,1.54417)">
                <path d="M20.537,32.153C19.456,33.53 18.381,34.51 17.697,34.26C17.011,34.01 16.816,32.571 16.873,30.819C15.98,30.903 15.244,31.393 14.836,32.512C14.156,34.381 12.824,42.336 14.53,42.959C16.235,43.578 20.331,36.629 21.011,34.76C21.417,33.641 21.165,32.792 20.537,32.153Z" style="fill:rgb(31,31,31);fill-rule:nonzero;"/>
            </g>
        </g>
        <g transform="matrix(0.0683515,0,0,0.0683515,698.67,146.498)">
            <clipPath id="_clip1">
                <path d="M1825.57,573.259L1825.57,570.562L1884.92,272.021C1884.92,272.021 1752.73,-32.814 1308.52,4.054C865.206,40.922 809.454,143.433 736.617,265.726L779.78,460.857L697.052,513.911C697.052,513.911 667.378,424.888 620.618,421.291C620.618,421.291 689.858,321.478 640.401,252.238C590.944,182.998 325.674,189.292 223.164,539.988C223.164,539.988 209.675,433.88 166.513,433.88C123.35,433.88 -35.811,491.43 7.351,656.886C50.513,822.343 199.784,871.8 249.241,892.482C249.241,892.482 272.621,922.156 262.729,961.722C257.334,982.404 137.738,1353.78 237.551,1697.28C312.186,1953.56 552.278,2176.57 552.278,2176.57C735.718,2351.02 982.104,2458.02 1253.67,2458.02C1817.48,2458.02 2275.18,1996.72 2275.18,1427.52C2276.08,1072.33 2097.14,758.498 1825.57,573.259Z"/>
            </clipPath>
            <g clip-path="url(#_clip1)">
                <path d="M1614.26,1803.39C1614.26,1803.39 2357.01,1922.99 2438.84,2961.58C2438.84,2961.58 2300.36,3049.71 2155.59,3056C2155.59,3056 2168.17,2256.6 1614.26,1803.39Z" style="fill:rgb(5,6,6);fill-rule:nonzero;"/>
                <path d="M2438.84,2961.58C2431.64,2866.27 2418.16,2779.04 2401.07,2699.01C2344.42,2734.08 2254.5,2776.35 2133.1,2792.53C2158.28,2949.89 2156.48,3056 2156.48,3056C2300.36,3049.71 2438.84,2961.58 2438.84,2961.58ZM2048.58,2452.63C2053.97,2469.71 2060.27,2485.9 2064.76,2502.98C2113.32,2497.59 2223.03,2482.3 2320.14,2439.14C2312.95,2422.95 2306.65,2406.77 2299.46,2391.48C2263.49,2407.67 2184.36,2436.44 2048.58,2452.63ZM2345.32,2503.88C2304.85,2523.66 2218.53,2557.83 2085.45,2571.32L2098.93,2622.58C2151.99,2614.49 2247.3,2594.7 2361.51,2549.74L2345.32,2503.88Z" style="fill:rgb(221,31,45);fill-rule:nonzero;"/>
                <path d="M848.121,857.412C936.023,857.412 1007.28,928.671 1007.28,1016.57C1007.28,1104.48 936.023,1175.74 848.121,1175.74C760.218,1175.74 688.959,1104.48 688.959,1016.57C688.959,928.671 760.218,857.412 848.121,857.412Z" style="fill:rgb(244,207,140);fill-rule:nonzero;"/>
                <path d="M848.121,857.412C936.023,857.412 1007.28,928.671 1007.28,1016.57C1007.28,1104.48 936.023,1175.74 848.121,1175.74C760.218,1175.74 688.959,1104.48 688.959,1016.57C688.959,928.671 760.218,857.412 848.121,857.412Z" style="fill:rgb(244,207,140);fill-rule:nonzero;"/>
                <path d="M688.959,1016.57C688.959,1021.07 688.959,1026.47 689.858,1030.96C701.548,1026.47 713.238,1020.17 725.827,1011.18C801.362,962.621 803.16,905.071 786.974,869.102C729.424,894.28 688.959,950.931 688.959,1016.57Z" style="fill:rgb(244,207,140);fill-rule:nonzero;"/>
                <path d="M766.292,939.241C809.002,939.241 843.625,973.864 843.625,1016.57C843.625,1059.28 809.002,1093.91 766.292,1093.91C723.582,1093.91 688.959,1059.28 688.959,1016.57C688.959,973.864 723.582,939.241 766.292,939.241Z" style="fill:rgb(244,207,140);fill-rule:nonzero;"/>
                <path d="M766.292,940.14C763.594,940.14 759.997,940.14 757.299,941.04C786.974,945.536 810.354,977.908 810.354,1017.47C810.354,1057.04 786.974,1089.41 757.299,1093.91C759.997,1093.91 763.594,1094.81 766.292,1094.81C808.555,1094.81 843.625,1060.64 843.625,1017.47C842.725,974.311 808.555,940.14 766.292,940.14Z" style="fill:rgb(216,175,111);fill-rule:nonzero;"/>
                <path d="M688.959,1016.57C688.959,1058.84 715.936,1093.91 749.207,1093.91C751.904,1093.91 753.703,1093.91 756.401,1093.01C718.633,1088.51 688.959,1056.14 688.959,1016.57ZM756.401,941.04C753.703,941.04 751.904,940.14 749.207,940.14C715.936,940.14 688.959,974.311 688.959,1017.47C688.959,977.908 718.633,945.536 756.401,941.04Z" style="fill:rgb(244,207,140);fill-rule:nonzero;"/>
                <path d="M1780.61,857.412C1868.51,857.412 1939.77,928.671 1939.77,1016.57C1939.77,1104.48 1868.51,1175.74 1780.61,1175.74C1692.71,1175.74 1621.45,1104.48 1621.45,1016.57C1621.45,928.671 1692.71,857.412 1780.61,857.412Z" style="fill:rgb(244,207,140);fill-rule:nonzero;"/>
                <path d="M1780.61,857.412C1868.51,857.412 1939.77,928.671 1939.77,1016.57C1939.77,1104.48 1868.51,1175.74 1780.61,1175.74C1692.71,1175.74 1621.45,1104.48 1621.45,1016.57C1621.45,928.671 1692.71,857.412 1780.61,857.412Z" style="fill:rgb(244,207,140);fill-rule:nonzero;"/>
                <path d="M1862.44,939.241C1905.15,939.241 1939.77,973.864 1939.77,1016.57C1939.77,1059.28 1905.15,1093.91 1862.44,1093.91C1819.73,1093.91 1785.11,1059.28 1785.11,1016.57C1785.11,973.864 1819.73,939.241 1862.44,939.241Z" style="fill:rgb(244,207,140);fill-rule:nonzero;"/>
                <path d="M1818.38,1016.57C1818.38,977.008 1841.76,944.636 1871.43,940.14C1868.73,940.14 1865.14,939.241 1862.44,939.241C1820.18,939.241 1785.11,973.412 1785.11,1016.57C1785.11,1058.84 1819.28,1093.91 1862.44,1093.91C1865.14,1093.91 1868.73,1093.91 1871.43,1093.01C1841.76,1088.51 1818.38,1056.14 1818.38,1016.57Z" style="fill:rgb(216,175,111);fill-rule:nonzero;"/>
                <path d="M218.668,656.886C206.978,644.297 167.412,595.74 179.102,524.701C184.497,492.33 160.218,476.144 131.444,479.74C125.149,567.864 137.738,747.707 312.186,798.963C312.186,798.963 246.543,768.39 218.668,656.886ZM441.674,521.104C465.953,486.934 512.711,438.376 595.44,395.214C595.44,395.214 651.192,361.943 618.82,279.214C617.921,277.416 617.921,276.517 617.022,274.718C608.928,299.896 593.642,329.571 563.967,350.253C502.82,392.516 284.311,544.484 353.55,773.785C352.651,775.583 323.876,633.507 441.674,521.104ZM545.084,643.398C545.084,643.398 555.875,786.374 665.579,745.909C710.54,729.723 723.129,678.468 715.936,624.515C688.06,653.29 603.533,725.227 570.262,572.36L419.194,748.607L299.597,817.847L448.867,780.08L536.092,893.381L470.449,741.413L545.084,643.398ZM536.092,997.69C516.309,1032.76 447.968,1101.1 282.512,1016.57C279.815,1031.86 276.217,1044.45 270.822,1059.74C270.822,1059.74 336.465,1142.46 403.008,1119.08C403.008,1119.08 547.782,1137.97 536.092,997.69ZM706.944,993.194C825.64,917.66 762.695,817.847 730.323,815.149C709.641,813.351 684.463,798.963 641.3,815.149L679.967,895.179C679.967,895.179 671.874,1009.38 544.185,980.605C544.185,980.605 543.286,985.101 539.689,992.295C554.076,1009.38 607.13,1057.04 706.944,993.194ZM403.008,1119.08C403.008,1119.08 554.975,1138.87 535.193,986.9C535.193,986.9 588.246,1069.63 706.944,993.194C825.64,917.66 762.695,817.847 730.323,815.149C697.052,811.552 651.192,775.583 535.193,894.28L469.549,742.312L545.084,643.398C545.084,643.398 555.875,786.374 665.579,745.909C776.183,705.444 693.455,461.756 594.541,461.756L416.496,564.267C416.496,564.267 449.767,471.647 594.541,396.113C594.541,396.113 650.293,362.842 617.921,280.114C584.65,197.386 270.822,256.734 221.365,659.584C221.365,659.584 165.613,606.53 178.203,523.802C190.792,441.074 16.343,464.454 49.614,642.499C82.885,820.544 254.636,857.412 254.636,857.412C254.636,857.412 313.086,951.83 270.822,1058.84C270.822,1059.74 337.364,1141.57 403.008,1119.08ZM1872.33,1093.01C1875.03,1093.01 1876.83,1093.91 1879.52,1093.91C1912.8,1093.91 1939.77,1059.74 1939.77,1016.57C1939.77,1056.14 1910.1,1088.51 1872.33,1093.01ZM1939.77,1016.57C1939.77,974.311 1912.8,939.241 1879.52,939.241C1876.83,939.241 1875.03,939.241 1872.33,940.14C1910.1,945.536 1939.77,977.908 1939.77,1016.57Z" style="fill:rgb(244,207,140);fill-rule:nonzero;"/>
                <path d="M270.822,1059.74L403.008,1119.08C403.008,1119.08 284.311,1772.82 904.772,1799.79C904.772,1799.79 909.268,2220.63 526.2,2213.43C526.2,2213.43 19.94,1810.58 270.822,1059.74Z" style="fill:rgb(5,6,6);fill-rule:nonzero;"/>
                <path d="M270.822,1059.74C234.854,1157.75 219.567,1248.57 207.877,1333.1C270.822,1344.79 333.768,1346.59 395.814,1306.12C387.721,1200.01 403.008,1119.08 403.008,1119.08L270.822,1059.74ZM471.348,1567.8C468.651,1562.4 465.053,1557 462.356,1551.61C428.186,1567.8 334.667,1605.56 210.574,1606.46C212.373,1622.65 215.07,1638.83 217.768,1654.12C285.21,1654.12 384.124,1642.43 481.239,1585.78L481.239,1584.88C477.643,1579.48 474.945,1574.09 471.348,1568.69L471.348,1567.79L471.348,1567.8ZM429.085,1474.28C427.286,1467.98 425.488,1462.59 423.69,1456.29C394.015,1471.58 315.783,1505.75 202.482,1504.85L205.179,1548.01C261.829,1548.01 356.248,1540.82 438.077,1496.76L438.077,1495.86C435.379,1489.56 433.581,1483.27 431.782,1476.97L429.085,1474.28Z" style="fill:rgb(221,31,45);fill-rule:nonzero;"/>
                <path d="M1687.09,1782.71L942.539,1782.71C149.428,2130.71 333.768,3444.46 333.768,3444.46L1319.31,3444.46L1319.31,2843.79L1374.16,3444.46L2294.96,3444.46C2294.96,3443.57 2480.2,2130.71 1687.09,1782.71ZM2165.48,2736.78L1356.18,3779.87C1356.18,3779.87 1324.71,3791.56 1311.22,3775.38L1311.22,2736.78L2165.48,2736.78ZM463.255,2736.78L1272.55,3779.87C1272.55,3779.87 1304.02,3791.56 1317.51,3775.38L1317.51,2736.78L463.255,2736.78Z" style="fill:rgb(5,6,6);fill-rule:nonzero;"/>
                <path d="M2355.21,3004.75C2344.42,2722.39 2287.77,2360.01 2097.14,2087.54C1869.63,1844.75 1614.26,1803.39 1614.26,1803.39C2168.17,2256.6 2155.59,3056 2155.59,3056C2229.32,3052.41 2302.16,3028.13 2355.21,3004.75Z" style="fill:rgb(147,25,38);fill-rule:nonzero;"/>
                <path d="M1319.31,2843.79L1374.16,3444.46L2294.96,3444.46C2294.96,3444.46 2351.61,3041.61 2267.09,2622.58L2220.33,2607.29C2297.66,2818.61 2261.69,3388.71 2261.69,3388.71L1423.62,3388.71L1344.49,2502.98L1280.64,2502.98L1272.55,3388.71L376.93,3388.71C335.566,2986.76 399.41,2609.09 399.41,2609.09L361.643,2619.88C276.217,3039.82 333.768,3444.46 333.768,3444.46L1319.31,3444.46L1319.31,2843.79ZM1858.84,1883.42C1925.38,1975.14 2031.49,2158.58 2017.1,2391.48L2062.97,2412.16C2062.97,2412.16 2080.95,2145.99 1911.9,1926.58C1894.81,1911.3 1876.83,1896.91 1858.84,1883.42ZM716.835,1926.58C546.883,2145.09 565.766,2412.16 565.766,2412.16L611.626,2391.48C597.238,2159.48 703.346,1975.14 769.889,1883.42C751.904,1896.91 733.92,1911.3 716.835,1926.58ZM409.302,2434.64C405.705,2445.43 403.008,2456.22 399.41,2467.01C619.719,2394.18 947.934,2348.32 1314.82,2348.32C1681.7,2348.32 2009.91,2394.18 2230.22,2467.01C2226.62,2456.22 2223.93,2445.43 2220.33,2434.64C2000.02,2363.6 1676.3,2319.54 1314.82,2319.54C953.329,2319.54 628.712,2364.5 409.302,2434.64ZM365.24,2601C362.543,2612.69 359.845,2625.28 358.047,2636.97C577.456,2556.04 923.655,2503.88 1313.92,2503.88C1704.18,2503.88 2051.28,2556.04 2269.79,2636.97C2267.09,2625.28 2265.29,2612.69 2262.59,2601C2043.18,2521.87 1699.68,2470.61 1313.92,2470.61C928.151,2470.61 584.65,2521.87 365.24,2601Z" style="fill:rgb(221,31,45);fill-rule:nonzero;"/>
                <path d="M1726.66,1754.83C1726.66,1754.83 1568.39,1898.71 1307.62,1898.71C998.29,1898.71 902.074,1754.83 902.074,1754.83L847.221,745.909L1780.61,745.909L1726.66,1754.83ZM1726.66,1754.83C1726.66,1754.83 1568.39,1898.71 1307.62,1898.71C998.29,1898.71 902.074,1754.83 902.074,1754.83L847.221,745.909L1780.61,745.909L1726.66,1754.83ZM1726.66,1754.83C1726.66,1754.83 1568.39,1898.71 1307.62,1898.71C998.29,1898.71 902.074,1754.83 902.074,1754.83L847.221,745.909L1780.61,745.909L1726.66,1754.83Z" style="fill:rgb(244,207,140);fill-rule:nonzero;"/>
                <path d="M1432.61,918.559L1455.99,888.885C1455.99,888.885 1539.62,884.389 1669.11,953.628C1669.11,953.628 1575.59,838.528 1435.31,877.195L1439.81,852.017L1400.24,916.761C1400.24,916.761 1414.63,1003.98 1399.34,1066.93L1231.19,1066.93C1215.9,1003.98 1230.29,916.761 1230.29,916.761L1190.72,852.017L1195.22,877.195C1054.94,838.528 961.423,953.628 961.423,953.628C1090.01,884.389 1174.54,888.885 1174.54,888.885L1197.92,918.559C1152.96,1008.48 1046.85,1015.67 1046.85,1015.67C1158.35,1027.36 1198.82,958.124 1198.82,958.124C1192.52,1012.98 1204.21,1084.91 1204.21,1084.91L1315.71,1164.05L1316.61,1163.15L1317.51,1164.05L1429.02,1084.91C1429.02,1084.91 1440.71,1012.98 1434.41,958.124C1434.41,958.124 1474.88,1027.36 1586.38,1015.67C1583.68,1015.67 1477.57,1008.48 1432.61,918.559Z" style="fill:rgb(178,125,48);fill-rule:nonzero;"/>
                <path d="M1313.92,1153.26C1398.34,1153.26 1466.78,1194.32 1466.78,1244.98C1466.78,1295.63 1398.34,1336.7 1313.92,1336.7C1229.49,1336.7 1161.05,1295.63 1161.05,1244.98C1161.05,1194.32 1229.49,1153.26 1313.92,1153.26Z" style="fill:rgb(5,6,6);fill-rule:nonzero;"/>
                <path d="M1313.92,1341.19C1348.99,1341.19 1380.46,1329.5 1406.54,1317.81C1388.55,1298.03 1354.38,1285.44 1313.92,1285.44C1274.35,1285.44 1239.28,1298.93 1221.3,1317.81C1247.37,1329.5 1279.75,1341.19 1313.92,1341.19Z" style="fill:rgb(221,31,45);fill-rule:nonzero;"/>
                <path d="M1313.92,1153.26C1229.39,1153.26 1161.05,1194.62 1161.05,1244.98C1161.05,1247.67 1161.05,1250.37 1161.95,1253.07L1466.78,1253.07C1466.78,1250.37 1467.68,1247.67 1467.68,1244.98C1467.68,1194.62 1399.34,1153.26 1313.92,1153.26Z" style="fill:white;fill-rule:nonzero;"/>
                <path d="M1313.92,1669.41C1260.86,1669.41 1211.41,1659.52 1170.04,1643.33C1203.31,1686.49 1255.47,1713.47 1313.92,1713.47C1372.37,1713.47 1424.52,1685.59 1457.79,1643.33C1416.43,1659.52 1367.87,1669.41 1313.92,1669.41ZM1313.92,1396.04C1282.44,1396.04 1253.67,1390.65 1229.39,1380.76C1249.17,1405.94 1278.85,1422.12 1313.92,1422.12C1348.09,1422.12 1378.66,1405.94 1398.44,1380.76C1374.16,1390.65 1345.39,1396.04 1313.92,1396.04Z" style="fill:rgb(202,141,43);fill-rule:nonzero;"/>
                <path d="M856.214,912.265L1771.62,912.265L1780.61,746.808L847.221,746.808L856.214,912.265Z" style="fill:rgb(207,161,99);fill-rule:nonzero;"/>
                <path d="M1783.31,745.909L1865.14,272.021C1865.14,272.021 1741.94,29.232 1316.61,29.232C800.462,29.232 762.695,272.021 762.695,272.021L845.423,745.909L1783.31,745.909Z" style="fill:rgb(5,6,6);fill-rule:nonzero;"/>
                <path d="M810.354,542.686L845.423,745.909L1783.31,745.909L1818.38,542.686L810.354,542.686Z" style="fill:rgb(221,31,45);fill-rule:nonzero;"/>
                <path d="M1924.49,859.21L704.246,859.21L666.479,745.909L1963.15,745.909L1924.49,859.21Z" style="fill:rgb(5,6,6);fill-rule:nonzero;"/>
                <path d="M1313.92,457.26C1397.35,457.26 1464.98,524.895 1464.98,608.329C1464.98,691.762 1397.35,759.397 1313.92,759.397C1230.48,759.397 1162.85,691.762 1162.85,608.329C1162.85,524.895 1230.48,457.26 1313.92,457.26Z" style="fill:rgb(5,6,6);fill-rule:nonzero;"/>
                <path d="M1338.19,574.158L1381.36,542.686L1348.09,584.949L1400.24,571.46L1354.38,599.336L1407.43,605.631L1354.38,614.623L1402.94,639.801L1350.78,629.011L1385.85,669.476L1340.89,640.701L1358.88,691.057L1327.4,647.894L1326.51,701.847L1313.02,649.693L1292.33,699.15L1297.73,646.096L1260.86,684.762L1285.14,637.103L1236.58,659.584L1277.05,623.615L1223.09,627.212L1273.45,608.329L1222.2,592.143L1276.15,593.042L1233.89,559.771L1283.34,579.554L1256.37,533.693L1295.03,570.562L1286.04,517.507L1309.42,566.065L1320.21,513.911L1324.71,567.864L1354.38,522.903L1338.19,574.158ZM1313.92,524.701C1268.06,524.701 1231.19,561.569 1231.19,607.429C1231.19,653.29 1268.06,690.157 1313.92,690.157C1359.78,690.157 1396.64,653.29 1396.64,607.429C1397.54,562.468 1359.78,524.701 1313.92,524.701ZM1313.92,703.646C1260.86,703.646 1218.6,660.483 1218.6,608.329C1218.6,555.275 1261.76,513.011 1313.92,513.011C1366.97,513.011 1409.23,556.174 1409.23,608.329C1410.13,660.483 1366.97,703.646 1313.92,703.646ZM1313.92,493.228C1250.07,493.228 1198.82,544.484 1198.82,608.329C1198.82,672.173 1250.07,723.429 1313.92,723.429C1377.76,723.429 1429.02,672.173 1429.02,608.329C1429.92,544.484 1377.76,493.228 1313.92,493.228ZM1313.92,740.514C1241.08,740.514 1181.73,681.166 1181.73,608.329C1181.73,535.492 1241.08,476.144 1313.92,476.144C1386.75,476.144 1446.1,535.492 1446.1,608.329C1447,681.166 1387.65,740.514 1313.92,740.514Z" style="fill:rgb(221,31,45);fill-rule:nonzero;"/>
                <path d="M1342.69,608.329C1342.69,624.515 1330.1,637.103 1313.92,637.103C1297.73,637.103 1285.14,624.515 1285.14,608.329C1285.14,592.143 1297.73,579.554 1313.92,579.554C1330.1,579.554 1342.69,592.143 1342.69,608.329Z" style="fill:rgb(5,6,6);fill-rule:nonzero;"/>
                <path d="M1307.62,1899.61C998.29,1899.61 902.074,1755.73 902.074,1755.73L912.864,1960.75C912.864,1960.75 1005.48,2101.03 1307.62,2101.03C1561.2,2101.03 1714.97,1960.75 1714.97,1960.75L1726.66,1754.83C1725.76,1754.83 1567.5,1899.61 1307.62,1899.61Z" style="fill:rgb(221,31,45);fill-rule:nonzero;"/>
                <path d="M1313.92,2097.44C1321.11,2070.46 1325.61,2036.29 1325.61,1999.42C1325.61,1961.65 1321.11,1927.48 1313.92,1901.41C1306.72,1928.38 1302.23,1962.55 1302.23,1999.42C1302.23,2036.29 1306.72,2071.36 1313.92,2097.44Z" style="fill:rgb(5,6,6);fill-rule:nonzero;"/>
                <path d="M1387.65,1977.84C1403.05,1977.84 1415.53,1990.32 1415.53,2005.71C1415.53,2021.11 1403.05,2033.59 1387.65,2033.59C1372.26,2033.59 1359.78,2021.11 1359.78,2005.71C1359.78,1990.32 1372.26,1977.84 1387.65,1977.84Z" style="fill:rgb(147,25,38);fill-rule:nonzero;"/>
                <path d="M1381.36,1971.54C1396.75,1971.54 1409.23,1984.02 1409.23,1999.42C1409.23,2014.81 1396.75,2027.3 1381.36,2027.3C1365.96,2027.3 1353.48,2014.81 1353.48,1999.42C1353.48,1984.02 1365.96,1971.54 1381.36,1971.54Z" style="fill:white;fill-rule:nonzero;"/>
                <path d="M1399.34,2361.81L1399.34,2459.82C1399.34,2465.22 1394.85,2470.61 1388.55,2470.61L1240.18,2470.61C1234.78,2470.61 1229.39,2466.11 1229.39,2459.82L1229.39,2361.81C1229.39,2356.41 1233.89,2351.01 1240.18,2351.01L1388.55,2351.01C1393.95,2351.01 1399.34,2355.51 1399.34,2361.81ZM1414.63,2281.77L1214.1,2281.77C1182.63,2281.77 1156.55,2307.85 1156.55,2339.32L1156.55,2482.3C1156.55,2513.77 1182.63,2539.85 1214.1,2539.85L1414.63,2539.85C1446.1,2539.85 1472.18,2513.77 1472.18,2482.3L1472.18,2339.32C1472.18,2306.95 1446.1,2281.77 1414.63,2281.77Z" style="fill:rgb(252,175,22);fill-rule:nonzero;"/>
                <path d="M1203.31,1084.91L1313.92,1163.15L1314.82,1162.25L1315.71,1163.15L1426.32,1084.91L1203.31,1084.91Z" style="fill:rgb(202,141,43);fill-rule:nonzero;"/>
                <path d="M1313.92,1146.06C1313.92,1146.06 1407.43,1034.56 1626.84,1089.41C1846.25,1144.26 1958.66,1415.83 1958.66,1415.83C1958.66,1415.83 1839.06,1504.85 1652.02,1480.57C1464.98,1456.29 1313.02,1256.67 1313.92,1146.06ZM1313.92,1146.06C1313.92,1146.06 1220.4,1034.56 1000.99,1089.41L669.176,1415.83C669.176,1415.83 788.772,1504.85 975.81,1480.57C1162.85,1456.29 1315.71,1256.67 1313.92,1146.06Z" style="fill:rgb(77,27,13);fill-rule:nonzero;"/>
                <path d="M1768.92,2099.23L1788.7,2099.23L1753.63,2141.5L1719.46,2099.23L1739.25,2099.23L1739.25,2080.35L1665.51,2080.35L1665.51,2099.23L1694.29,2099.23L1742.84,2159.48L1742.84,2197.25L1714.07,2197.25L1714.07,2216.13L1791.4,2216.13L1791.4,2197.25L1762.63,2197.25L1762.63,2159.48L1811.18,2099.23L1839.96,2099.23L1839.96,2080.35L1766.22,2080.35L1768.92,2099.23Z" style="fill:rgb(221,31,45);fill-rule:nonzero;"/>
            </g>
        </g>
    </g>
    <g id="hr" transform="matrix(1,0,0,0.264161,-18.261,246.639)">
        <rect x="74.321" y="331.777" width="787.881" height="2.976" style="fill:rgb(68,68,68);"/>
    </g>
    <g id="slogan" transform="matrix(1,0,0,1,68.3607,8)">
        <path d="M186.896,357.969L186.069,357.969L189.005,344.293L189.831,344.293L186.896,357.969Z" style="fill:rgb(68,68,68);fill-rule:nonzero;"/>
        <path d="M193.698,358.144C192.685,358.144 191.894,357.824 191.325,357.182C190.757,356.54 190.473,355.645 190.473,354.497C190.473,353.436 190.681,352.42 191.097,351.447C191.513,350.474 192.086,349.701 192.815,349.127C193.545,348.553 194.349,348.265 195.228,348.265C195.896,348.265 196.429,348.444 196.827,348.802C197.226,349.159 197.425,349.645 197.425,350.261C197.425,351.321 196.946,352.13 195.988,352.686C195.03,353.243 193.608,353.521 191.721,353.521L191.431,353.521C191.396,353.779 191.378,354.066 191.378,354.383C191.378,355.349 191.595,356.086 192.028,356.593C192.462,357.1 193.086,357.353 193.9,357.353C194.674,357.353 195.483,357.14 196.326,356.712L196.326,357.538C195.506,357.942 194.63,358.144 193.698,358.144ZM195.122,349.021C194.355,349.021 193.641,349.36 192.982,350.036C192.323,350.713 191.847,351.617 191.554,352.748L191.984,352.748C195.014,352.748 196.528,351.957 196.528,350.375C196.528,349.982 196.401,349.659 196.146,349.404C195.891,349.149 195.55,349.021 195.122,349.021Z" style="fill:rgb(68,68,68);fill-rule:nonzero;"/>
        <path d="M203.832,348.415L203.674,349.127L201.187,349.127L200,354.708C199.871,355.288 199.807,355.768 199.807,356.149C199.807,356.964 200.176,357.371 200.914,357.371C201.313,357.371 201.758,357.295 202.25,357.142L202.25,357.898C201.658,358.062 201.16,358.144 200.756,358.144C200.176,358.144 199.728,357.985 199.411,357.665C199.095,357.346 198.937,356.882 198.937,356.272C198.937,355.845 199.022,355.241 199.192,354.462L200.325,349.127L198.726,349.127L198.849,348.538L200.466,348.389L201.318,346.165L201.802,346.165L201.318,348.415L203.832,348.415Z" style="fill:rgb(68,68,68);fill-rule:nonzero;"/>
        <path d="M208.903,348.415L209.782,348.415L210.503,353.231C210.802,355.288 210.963,356.603 210.986,357.178L211.083,357.178C211.335,356.562 211.88,355.487 212.718,353.952L215.776,348.415L216.682,348.415L210.415,359.753C209.993,360.497 209.634,361.018 209.338,361.317C209.043,361.616 208.709,361.853 208.337,362.029C207.964,362.205 207.535,362.293 207.049,362.293C206.65,362.293 206.273,362.231 205.915,362.108L205.915,361.3C206.331,361.458 206.733,361.537 207.119,361.537C207.588,361.537 208.019,361.392 208.411,361.102C208.804,360.812 209.185,360.33 209.554,359.656C209.923,358.982 210.216,358.443 210.433,358.039L208.903,348.415Z" style="fill:rgb(68,68,68);fill-rule:nonzero;"/>
        <path d="M220.03,358.144C219.017,358.144 218.226,357.824 217.657,357.182C217.089,356.54 216.805,355.645 216.805,354.497C216.805,353.436 217.013,352.42 217.429,351.447C217.845,350.474 218.418,349.701 219.147,349.127C219.877,348.553 220.681,348.265 221.56,348.265C222.228,348.265 222.761,348.444 223.159,348.802C223.558,349.159 223.757,349.645 223.757,350.261C223.757,351.321 223.278,352.13 222.32,352.686C221.362,353.243 219.94,353.521 218.053,353.521L217.763,353.521C217.728,353.779 217.71,354.066 217.71,354.383C217.71,355.349 217.927,356.086 218.36,356.593C218.794,357.1 219.418,357.353 220.233,357.353C221.006,357.353 221.815,357.14 222.658,356.712L222.658,357.538C221.838,357.942 220.962,358.144 220.03,358.144ZM221.454,349.021C220.687,349.021 219.973,349.36 219.314,350.036C218.655,350.713 218.179,351.617 217.886,352.748L218.317,352.748C221.346,352.748 222.86,351.957 222.86,350.375C222.86,349.982 222.733,349.659 222.478,349.404C222.223,349.149 221.882,349.021 221.454,349.021Z" style="fill:rgb(68,68,68);fill-rule:nonzero;"/>
        <path d="M229.769,348.23C230.823,348.23 231.639,348.548 232.216,349.184C232.794,349.82 233.082,350.697 233.082,351.816C233.082,352.971 232.873,354.05 232.454,355.055C232.035,356.06 231.462,356.826 230.735,357.353C230.009,357.881 229.171,358.144 228.222,358.144C227.144,358.144 226.325,357.824 225.765,357.182C225.206,356.54 224.926,355.622 224.926,354.427C224.926,353.307 225.14,352.259 225.567,351.28C225.995,350.302 226.572,349.549 227.299,349.021C228.025,348.494 228.849,348.23 229.769,348.23ZM229.698,348.986C228.972,348.986 228.318,349.216 227.738,349.676C227.158,350.136 226.695,350.795 226.35,351.654C226.004,352.512 225.831,353.422 225.831,354.383C225.831,356.387 226.657,357.389 228.31,357.389C229.054,357.389 229.714,357.161 230.292,356.707C230.869,356.253 231.329,355.585 231.671,354.703C232.014,353.822 232.186,352.853 232.186,351.799C232.186,350.896 231.972,350.202 231.544,349.716C231.116,349.229 230.501,348.986 229.698,348.986Z" style="fill:rgb(68,68,68);fill-rule:nonzero;"/>
        <path d="M240.192,357.969L241.484,352.045C241.631,351.312 241.704,350.838 241.704,350.621C241.704,349.555 241.253,349.021 240.351,349.021C239.73,349.021 239.144,349.219 238.593,349.615C238.042,350.01 237.576,350.562 237.195,351.271C236.815,351.98 236.522,352.821 236.317,353.794L235.438,357.969L234.576,357.969L236.607,348.415L237.31,348.415L237.02,350.261L237.072,350.261C237.541,349.598 238.073,349.1 238.668,348.766C239.262,348.432 239.885,348.265 240.535,348.265C241.156,348.265 241.634,348.462 241.968,348.854C242.302,349.247 242.478,349.818 242.495,350.568L242.548,350.568C242.999,349.812 243.529,349.24 244.139,348.85C244.748,348.46 245.399,348.265 246.09,348.265C246.775,348.265 247.31,348.446 247.694,348.806C248.078,349.166 248.27,349.683 248.27,350.357C248.27,350.527 248.262,350.693 248.248,350.854C248.233,351.015 248.176,351.365 248.076,351.904L246.74,357.969L245.861,357.969L247.171,351.992C247.317,351.289 247.391,350.773 247.391,350.445C247.391,349.994 247.265,349.644 247.013,349.395C246.761,349.146 246.412,349.021 245.967,349.021C245.047,349.021 244.234,349.424 243.528,350.23C242.822,351.035 242.328,352.098 242.047,353.416L241.089,357.969L240.192,357.969Z" style="fill:rgb(68,68,68);fill-rule:nonzero;"/>
        <path d="M255.09,348.265C256.449,348.265 257.267,348.907 257.542,350.19L257.595,350.19L258.113,348.415L258.817,348.415L256.804,357.969L256.083,357.969L256.479,355.56L256.426,355.56C255.934,356.392 255.386,357.031 254.782,357.476C254.179,357.922 253.484,358.144 252.699,358.144C251.053,358.144 250.23,357.049 250.23,354.857C250.23,353.703 250.449,352.601 250.889,351.553C251.328,350.504 251.916,349.694 252.651,349.122C253.386,348.551 254.199,348.265 255.09,348.265ZM252.901,357.353C253.423,357.353 253.943,357.172 254.462,356.808C254.98,356.445 255.446,355.959 255.859,355.349C256.272,354.74 256.587,354.066 256.804,353.328C257.021,352.59 257.129,351.966 257.129,351.456C257.129,350.993 257.053,350.578 256.9,350.212C256.748,349.846 256.523,349.556 256.224,349.342C255.925,349.128 255.553,349.021 255.108,349.021C254.381,349.021 253.725,349.262 253.139,349.742C252.553,350.223 252.072,350.942 251.697,351.9C251.322,352.858 251.135,353.811 251.135,354.761C251.135,355.651 251.281,356.306 251.574,356.725C251.867,357.144 252.31,357.353 252.901,357.353Z" style="fill:rgb(68,68,68);fill-rule:nonzero;"/>
        <path d="M266.006,357.969L267.316,351.887C267.439,351.348 267.5,350.89 267.5,350.515C267.5,350.047 267.373,349.681 267.118,349.417C266.863,349.153 266.469,349.021 265.936,349.021C265.279,349.021 264.663,349.218 264.086,349.61C263.508,350.003 263.022,350.552 262.627,351.258C262.231,351.964 261.928,352.804 261.717,353.776L260.82,357.969L259.959,357.969L261.989,348.415L262.71,348.415L262.385,350.357L262.438,350.357C263.399,348.963 264.617,348.265 266.094,348.265C266.856,348.265 267.427,348.453 267.808,348.828C268.189,349.203 268.379,349.742 268.379,350.445C268.379,350.855 268.309,351.389 268.168,352.045L266.867,357.969L266.006,357.969Z" style="fill:rgb(68,68,68);fill-rule:nonzero;"/>
        <path d="M280.279,355.376C280.279,356.22 279.978,356.892 279.374,357.393C278.771,357.894 277.95,358.144 276.913,358.144C275.9,358.144 275.006,357.925 274.233,357.485L274.233,356.545C274.666,356.814 275.114,357.022 275.577,357.169C276.04,357.315 276.474,357.389 276.878,357.389C277.687,357.389 278.305,357.22 278.733,356.883C279.16,356.546 279.374,356.067 279.374,355.446C279.374,355.2 279.329,354.983 279.238,354.796C279.147,354.608 279.001,354.428 278.798,354.255C278.596,354.082 278.208,353.832 277.634,353.504C276.767,353.035 276.181,352.609 275.876,352.225C275.571,351.841 275.419,351.374 275.419,350.823C275.419,350.073 275.708,349.459 276.285,348.982C276.862,348.504 277.622,348.265 278.566,348.265C279.005,348.265 279.469,348.317 279.959,348.419C280.448,348.522 280.859,348.658 281.193,348.828L280.886,349.601C280.089,349.226 279.316,349.039 278.566,349.039C277.886,349.039 277.341,349.194 276.931,349.505C276.521,349.815 276.316,350.22 276.316,350.718C276.316,351.04 276.365,351.298 276.465,351.491C276.565,351.684 276.742,351.885 276.997,352.093C277.252,352.301 277.602,352.525 278.047,352.765C278.715,353.135 279.188,353.438 279.466,353.675C279.745,353.912 279.95,354.166 280.082,354.435C280.213,354.705 280.279,355.018 280.279,355.376Z" style="fill:rgb(68,68,68);fill-rule:nonzero;"/>
        <path d="M285.403,358.144C284.39,358.144 283.599,357.824 283.03,357.182C282.462,356.54 282.178,355.645 282.178,354.497C282.178,353.436 282.386,352.42 282.802,351.447C283.218,350.474 283.791,349.701 284.52,349.127C285.25,348.553 286.054,348.265 286.933,348.265C287.601,348.265 288.134,348.444 288.532,348.802C288.931,349.159 289.13,349.645 289.13,350.261C289.13,351.321 288.651,352.13 287.693,352.686C286.735,353.243 285.313,353.521 283.426,353.521L283.136,353.521C283.101,353.779 283.083,354.066 283.083,354.383C283.083,355.349 283.3,356.086 283.734,356.593C284.167,357.1 284.791,357.353 285.606,357.353C286.379,357.353 287.188,357.14 288.031,356.712L288.031,357.538C287.211,357.942 286.335,358.144 285.403,358.144ZM286.827,349.021C286.06,349.021 285.346,349.36 284.687,350.036C284.028,350.713 283.552,351.617 283.259,352.748L283.69,352.748C286.719,352.748 288.234,351.957 288.234,350.375C288.234,349.982 288.106,349.659 287.851,349.404C287.596,349.149 287.255,349.021 286.827,349.021Z" style="fill:rgb(68,68,68);fill-rule:nonzero;"/>
        <path d="M295.537,348.415L295.379,349.127L292.892,349.127L291.705,354.708C291.576,355.288 291.512,355.768 291.512,356.149C291.512,356.964 291.881,357.371 292.619,357.371C293.018,357.371 293.463,357.295 293.955,357.142L293.955,357.898C293.363,358.062 292.865,358.144 292.461,358.144C291.881,358.144 291.433,357.985 291.116,357.665C290.8,357.346 290.642,356.882 290.642,356.272C290.642,355.845 290.727,355.241 290.897,354.462L292.03,349.127L290.431,349.127L290.554,348.538L292.171,348.389L293.024,346.165L293.507,346.165L293.024,348.415L295.537,348.415Z" style="fill:rgb(68,68,68);fill-rule:nonzero;"/>
        <path d="M298.2,348.415L296.864,354.55C296.735,355.171 296.671,355.634 296.671,355.938C296.671,356.372 296.81,356.716 297.088,356.971C297.367,357.226 297.773,357.353 298.306,357.353C298.95,357.353 299.558,357.161 300.129,356.778C300.701,356.394 301.181,355.846 301.571,355.134C301.961,354.422 302.252,353.603 302.445,352.678L303.368,348.415L304.23,348.415L302.199,357.969L301.496,357.969L301.742,356.167L301.69,356.167C300.711,357.462 299.53,358.109 298.148,358.109C297.38,358.109 296.798,357.928 296.403,357.564C296.007,357.201 295.81,356.671 295.81,355.973C295.81,355.622 295.874,355.124 296.003,354.479L297.321,348.415L298.2,348.415Z" style="fill:rgb(68,68,68);fill-rule:nonzero;"/>
        <path d="M309.275,358.109C307.927,358.109 307.109,357.468 306.822,356.184L306.787,356.184C306.711,356.606 306.275,358.642 305.478,362.293L304.608,362.293L307.561,348.415L308.281,348.415L307.886,350.823L307.939,350.823C308.472,349.927 309.045,349.27 309.657,348.854C310.269,348.438 310.939,348.23 311.665,348.23C312.456,348.23 313.066,348.501 313.493,349.043C313.921,349.585 314.135,350.413 314.135,351.526C314.135,352.669 313.924,353.756 313.502,354.787C313.08,355.818 312.502,356.63 311.766,357.222C311.031,357.813 310.2,358.109 309.275,358.109ZM311.472,349.021C310.962,349.021 310.452,349.193 309.942,349.535C309.433,349.878 308.96,350.369 308.523,351.008C308.087,351.646 307.763,352.342 307.552,353.095C307.341,353.848 307.235,354.459 307.235,354.928C307.235,355.66 307.416,356.247 307.776,356.69C308.136,357.132 308.63,357.353 309.257,357.353C309.984,357.353 310.643,357.107 311.234,356.615C311.826,356.123 312.307,355.41 312.676,354.475C313.045,353.54 313.23,352.587 313.23,351.614C313.23,349.886 312.644,349.021 311.472,349.021Z" style="fill:rgb(68,68,68);fill-rule:nonzero;"/>
        <path d="M320.753,348.415L321.632,348.415L322.353,353.231C322.651,355.288 322.813,356.603 322.836,357.178L322.933,357.178C323.185,356.562 323.73,355.487 324.567,353.952L327.626,348.415L328.531,348.415L322.265,359.753C321.843,360.497 321.484,361.018 321.188,361.317C320.892,361.616 320.558,361.853 320.186,362.029C319.814,362.205 319.385,362.293 318.899,362.293C318.5,362.293 318.122,362.231 317.765,362.108L317.765,361.3C318.181,361.458 318.582,361.537 318.969,361.537C319.438,361.537 319.868,361.392 320.261,361.102C320.653,360.812 321.034,360.33 321.403,359.656C321.773,358.982 322.066,358.443 322.282,358.039L320.753,348.415Z" style="fill:rgb(68,68,68);fill-rule:nonzero;"/>
        <path d="M333.462,348.23C334.517,348.23 335.333,348.548 335.91,349.184C336.487,349.82 336.775,350.697 336.775,351.816C336.775,352.971 336.566,354.05 336.147,355.055C335.728,356.06 335.155,356.826 334.429,357.353C333.702,357.881 332.864,358.144 331.915,358.144C330.837,358.144 330.018,357.824 329.459,357.182C328.899,356.54 328.619,355.622 328.619,354.427C328.619,353.307 328.833,352.259 329.261,351.28C329.689,350.302 330.266,349.549 330.992,349.021C331.719,348.494 332.542,348.23 333.462,348.23ZM333.392,348.986C332.665,348.986 332.012,349.216 331.432,349.676C330.852,350.136 330.389,350.795 330.043,351.654C329.697,352.512 329.525,353.422 329.525,354.383C329.525,356.387 330.351,357.389 332.003,357.389C332.747,357.389 333.408,357.161 333.985,356.707C334.562,356.253 335.022,355.585 335.365,354.703C335.708,353.822 335.879,352.853 335.879,351.799C335.879,350.896 335.665,350.202 335.237,349.716C334.81,349.229 334.194,348.986 333.392,348.986Z" style="fill:rgb(68,68,68);fill-rule:nonzero;"/>
        <path d="M340.985,348.415L339.65,354.55C339.521,355.171 339.456,355.634 339.456,355.938C339.456,356.372 339.595,356.716 339.874,356.971C340.152,357.226 340.558,357.353 341.091,357.353C341.735,357.353 342.343,357.161 342.915,356.778C343.486,356.394 343.966,355.846 344.356,355.134C344.746,354.422 345.037,353.603 345.231,352.678L346.153,348.415L347.015,348.415L344.984,357.969L344.281,357.969L344.527,356.167L344.475,356.167C343.496,357.462 342.316,358.109 340.933,358.109C340.165,358.109 339.584,357.928 339.188,357.564C338.793,357.201 338.595,356.671 338.595,355.973C338.595,355.622 338.659,355.124 338.788,354.479L340.107,348.415L340.985,348.415Z" style="fill:rgb(68,68,68);fill-rule:nonzero;"/>
        <path d="M353.949,348.248C354.354,348.248 354.714,348.289 355.03,348.371L354.846,349.188C354.57,349.1 354.239,349.056 353.853,349.056C353.302,349.056 352.777,349.244 352.279,349.619C351.781,349.994 351.333,350.556 350.935,351.306C350.536,352.056 350.243,352.868 350.056,353.741L349.177,357.969L348.316,357.969L350.346,348.415L351.049,348.415L350.794,350.208L350.847,350.208C351.275,349.657 351.635,349.26 351.928,349.017C352.221,348.774 352.533,348.585 352.864,348.45C353.195,348.315 353.557,348.248 353.949,348.248Z" style="fill:rgb(68,68,68);fill-rule:nonzero;"/>
        <path d="M363.345,358.109C361.997,358.109 361.18,357.468 360.893,356.184L360.858,356.184C360.781,356.606 360.345,358.642 359.548,362.293L358.678,362.293L361.631,348.415L362.352,348.415L361.956,350.823L362.009,350.823C362.542,349.927 363.115,349.27 363.727,348.854C364.339,348.438 365.009,348.23 365.735,348.23C366.526,348.23 367.136,348.501 367.564,349.043C367.991,349.585 368.205,350.413 368.205,351.526C368.205,352.669 367.994,353.756 367.572,354.787C367.15,355.818 366.572,356.63 365.837,357.222C365.101,357.813 364.271,358.109 363.345,358.109ZM365.542,349.021C365.032,349.021 364.523,349.193 364.013,349.535C363.503,349.878 363.03,350.369 362.593,351.008C362.157,351.646 361.833,352.342 361.622,353.095C361.411,353.848 361.306,354.459 361.306,354.928C361.306,355.66 361.486,356.247 361.846,356.69C362.207,357.132 362.7,357.353 363.327,357.353C364.054,357.353 364.713,357.107 365.305,356.615C365.897,356.123 366.377,355.41 366.746,354.475C367.115,353.54 367.3,352.587 367.3,351.614C367.3,349.886 366.714,349.021 365.542,349.021Z" style="fill:rgb(68,68,68);fill-rule:nonzero;"/>
        <path d="M375.333,348.248C375.737,348.248 376.098,348.289 376.414,348.371L376.23,349.188C375.954,349.1 375.623,349.056 375.236,349.056C374.686,349.056 374.161,349.244 373.663,349.619C373.165,349.994 372.717,350.556 372.318,351.306C371.92,352.056 371.627,352.868 371.44,353.741L370.561,357.969L369.699,357.969L371.73,348.415L372.433,348.415L372.178,350.208L372.231,350.208C372.658,349.657 373.019,349.26 373.312,349.017C373.605,348.774 373.917,348.585 374.248,348.45C374.579,348.315 374.941,348.248 375.333,348.248Z" style="fill:rgb(68,68,68);fill-rule:nonzero;"/>
        <path d="M381.02,348.23C382.074,348.23 382.89,348.548 383.467,349.184C384.045,349.82 384.333,350.697 384.333,351.816C384.333,352.971 384.124,354.05 383.705,355.055C383.286,356.06 382.713,356.826 381.986,357.353C381.26,357.881 380.422,358.144 379.473,358.144C378.395,358.144 377.576,357.824 377.016,357.182C376.457,356.54 376.177,355.622 376.177,354.427C376.177,353.307 376.391,352.259 376.818,351.28C377.246,350.302 377.823,349.549 378.55,349.021C379.276,348.494 380.1,348.23 381.02,348.23ZM380.949,348.986C380.223,348.986 379.569,349.216 378.989,349.676C378.409,350.136 377.946,350.795 377.601,351.654C377.255,352.512 377.082,353.422 377.082,354.383C377.082,356.387 377.908,357.389 379.561,357.389C380.305,357.389 380.965,357.161 381.543,356.707C382.12,356.253 382.58,355.585 382.922,354.703C383.265,353.822 383.437,352.853 383.437,351.799C383.437,350.896 383.223,350.202 382.795,349.716C382.367,349.229 381.752,348.986 380.949,348.986Z" style="fill:rgb(68,68,68);fill-rule:nonzero;"/>
        <path d="M383.735,362.293C383.372,362.293 383.041,362.237 382.742,362.126L382.742,361.317C383.018,361.446 383.349,361.511 383.735,361.511C384.216,361.511 384.592,361.36 384.865,361.058C385.137,360.756 385.35,360.236 385.502,359.498L387.84,348.415L388.684,348.415L386.328,359.586C386.123,360.553 385.811,361.245 385.392,361.664C384.973,362.083 384.421,362.293 383.735,362.293ZM388.271,345.963C388.271,345.64 388.335,345.383 388.464,345.189C388.593,344.996 388.769,344.899 388.991,344.899C389.325,344.899 389.492,345.11 389.492,345.532C389.492,345.866 389.428,346.13 389.299,346.323C389.17,346.516 389.003,346.613 388.798,346.613C388.628,346.613 388.498,346.556 388.407,346.442C388.316,346.327 388.271,346.168 388.271,345.963Z" style="fill:rgb(68,68,68);fill-rule:nonzero;"/>
        <path d="M393.491,358.144C392.478,358.144 391.687,357.824 391.118,357.182C390.55,356.54 390.266,355.645 390.266,354.497C390.266,353.436 390.474,352.42 390.89,351.447C391.306,350.474 391.879,349.701 392.608,349.127C393.338,348.553 394.142,348.265 395.021,348.265C395.689,348.265 396.222,348.444 396.62,348.802C397.019,349.159 397.218,349.645 397.218,350.261C397.218,351.321 396.739,352.13 395.781,352.686C394.823,353.243 393.4,353.521 391.514,353.521L391.224,353.521C391.189,353.779 391.171,354.066 391.171,354.383C391.171,355.349 391.388,356.086 391.821,356.593C392.255,357.1 392.879,357.353 393.693,357.353C394.467,357.353 395.275,357.14 396.119,356.712L396.119,357.538C395.299,357.942 394.423,358.144 393.491,358.144ZM394.915,349.021C394.148,349.021 393.434,349.36 392.775,350.036C392.116,350.713 391.64,351.617 391.347,352.748L391.777,352.748C394.807,352.748 396.321,351.957 396.321,350.375C396.321,349.982 396.194,349.659 395.939,349.404C395.684,349.149 395.343,349.021 394.915,349.021Z" style="fill:rgb(68,68,68);fill-rule:nonzero;"/>
        <path d="M401.718,358.144C400.698,358.144 399.894,357.821 399.305,357.173C398.716,356.526 398.422,355.628 398.422,354.479C398.422,353.348 398.637,352.289 399.068,351.302C399.499,350.315 400.08,349.562 400.813,349.043C401.545,348.525 402.395,348.265 403.361,348.265C404.147,348.265 404.853,348.391 405.48,348.643L405.234,349.434C404.607,349.159 403.968,349.021 403.317,349.021C402.562,349.021 401.88,349.247 401.274,349.698C400.668,350.149 400.192,350.8 399.846,351.649C399.5,352.499 399.327,353.436 399.327,354.462C399.327,355.388 399.543,356.101 399.973,356.602C400.404,357.103 401.015,357.353 401.806,357.353C402.222,357.353 402.607,357.315 402.962,357.239C403.316,357.163 403.701,357.028 404.117,356.835L404.117,357.643C403.438,357.977 402.638,358.144 401.718,358.144Z" style="fill:rgb(68,68,68);fill-rule:nonzero;"/>
        <path d="M411.421,348.415L411.263,349.127L408.775,349.127L407.589,354.708C407.46,355.288 407.396,355.768 407.396,356.149C407.396,356.964 407.765,357.371 408.503,357.371C408.901,357.371 409.347,357.295 409.839,357.142L409.839,357.898C409.247,358.062 408.749,358.144 408.345,358.144C407.765,358.144 407.317,357.985 407,357.665C406.684,357.346 406.525,356.882 406.525,356.272C406.525,355.845 406.61,355.241 406.78,354.462L407.914,349.127L406.315,349.127L406.438,348.538L408.055,348.389L408.907,346.165L409.391,346.165L408.907,348.415L411.421,348.415Z" style="fill:rgb(68,68,68);fill-rule:nonzero;"/>
        <path d="M421.168,348.265C422.527,348.265 423.345,348.907 423.62,350.19L423.673,350.19L424.192,348.415L424.895,348.415L422.882,357.969L422.161,357.969L422.557,355.56L422.504,355.56C422.012,356.392 421.464,357.031 420.86,357.476C420.257,357.922 419.563,358.144 418.777,358.144C417.131,358.144 416.308,357.049 416.308,354.857C416.308,353.703 416.527,352.601 416.967,351.553C417.406,350.504 417.994,349.694 418.729,349.122C419.464,348.551 420.277,348.265 421.168,348.265ZM418.98,357.353C419.501,357.353 420.021,357.172 420.54,356.808C421.058,356.445 421.524,355.959 421.937,355.349C422.35,354.74 422.665,354.066 422.882,353.328C423.099,352.59 423.207,351.966 423.207,351.456C423.207,350.993 423.131,350.578 422.979,350.212C422.826,349.846 422.601,349.556 422.302,349.342C422.003,349.128 421.631,349.021 421.186,349.021C420.459,349.021 419.803,349.262 419.217,349.742C418.631,350.223 418.15,350.942 417.775,351.9C417.4,352.858 417.213,353.811 417.213,354.761C417.213,355.651 417.359,356.306 417.652,356.725C417.945,357.144 418.388,357.353 418.98,357.353Z" style="fill:rgb(68,68,68);fill-rule:nonzero;"/>
        <path d="M432.084,357.969L433.394,351.887C433.517,351.348 433.578,350.89 433.578,350.515C433.578,350.047 433.451,349.681 433.196,349.417C432.941,349.153 432.547,349.021 432.014,349.021C431.358,349.021 430.741,349.218 430.164,349.61C429.587,350.003 429.1,350.552 428.705,351.258C428.309,351.964 428.006,352.804 427.795,353.776L426.899,357.969L426.037,357.969L428.067,348.415L428.788,348.415L428.463,350.357L428.516,350.357C429.477,348.963 430.695,348.265 432.172,348.265C432.934,348.265 433.505,348.453 433.886,348.828C434.267,349.203 434.457,349.742 434.457,350.445C434.457,350.855 434.387,351.389 434.246,352.045L432.945,357.969L432.084,357.969Z" style="fill:rgb(68,68,68);fill-rule:nonzero;"/>
        <path d="M441.172,348.265C442.52,348.265 443.337,348.907 443.624,350.19L443.659,350.19C443.73,349.804 444.149,347.838 444.916,344.293L445.786,344.293L442.886,357.969L442.165,357.969L442.561,355.56L442.508,355.56C441.494,357.283 440.252,358.144 438.781,358.144C437.135,358.144 436.312,357.049 436.312,354.857C436.312,353.726 436.521,352.642 436.94,351.605C437.359,350.568 437.938,349.752 438.676,349.158C439.414,348.563 440.246,348.265 441.172,348.265ZM438.984,357.353C439.505,357.353 440.028,357.17 440.552,356.804C441.077,356.438 441.546,355.946 441.959,355.327C442.372,354.709 442.684,354.033 442.895,353.297C443.106,352.562 443.211,351.948 443.211,351.456C443.211,350.718 443.031,350.127 442.671,349.685C442.31,349.243 441.817,349.021 441.19,349.021C440.463,349.021 439.807,349.265 439.221,349.751C438.635,350.237 438.154,350.948 437.779,351.882C437.404,352.817 437.217,353.776 437.217,354.761C437.217,356.489 437.806,357.353 438.984,357.353Z" style="fill:rgb(68,68,68);fill-rule:nonzero;"/>
        <path d="M459.717,348.415L459.567,349.109L457.432,349.206C457.584,349.37 457.712,349.616 457.814,349.944C457.917,350.272 457.968,350.606 457.968,350.946C457.968,351.585 457.808,352.19 457.489,352.761C457.17,353.332 456.736,353.759 456.188,354.04C455.64,354.321 455.015,354.462 454.312,354.462C453.942,354.462 453.717,354.435 453.635,354.383C453.166,354.576 452.803,354.79 452.545,355.024C452.287,355.259 452.158,355.496 452.158,355.736C452.158,355.976 452.251,356.165 452.435,356.303C452.62,356.441 452.952,356.533 453.433,356.58L454.496,356.677C456.524,356.858 457.537,357.632 457.537,358.997C457.537,359.653 457.347,360.232 456.966,360.733C456.585,361.234 456.037,361.619 455.322,361.889C454.608,362.158 453.755,362.293 452.765,362.293C451.675,362.293 450.821,362.082 450.203,361.66C449.585,361.238 449.275,360.643 449.275,359.876C449.275,358.493 450.181,357.515 451.991,356.94C451.534,356.694 451.306,356.334 451.306,355.859C451.306,355.139 451.865,354.547 452.984,354.084C452.568,353.873 452.245,353.564 452.013,353.157C451.782,352.749 451.666,352.288 451.666,351.772C451.666,351.122 451.823,350.524 452.136,349.979C452.45,349.434 452.883,349.007 453.437,348.696C453.991,348.386 454.596,348.23 455.252,348.23C455.656,348.23 456.087,348.292 456.544,348.415L459.717,348.415ZM450.172,359.788C450.172,360.38 450.409,360.819 450.884,361.106C451.359,361.393 452.015,361.537 452.853,361.537C454.042,361.537 454.971,361.319 455.639,360.882C456.307,360.446 456.641,359.847 456.641,359.085C456.641,358.587 456.458,358.204 456.091,357.938C455.725,357.671 455.085,357.503 454.171,357.432L452.765,357.301C451.845,357.564 451.183,357.9 450.778,358.307C450.374,358.714 450.172,359.208 450.172,359.788ZM452.554,351.72C452.554,352.376 452.725,352.874 453.068,353.214C453.411,353.554 453.893,353.723 454.514,353.723C455.029,353.723 455.481,353.615 455.867,353.398C456.254,353.181 456.554,352.848 456.768,352.396C456.982,351.945 457.089,351.45 457.089,350.911C457.089,350.302 456.925,349.828 456.597,349.492C456.269,349.155 455.809,348.986 455.217,348.986C454.672,348.986 454.2,349.112 453.802,349.364C453.403,349.616 453.096,349.956 452.879,350.384C452.662,350.811 452.554,351.257 452.554,351.72Z" style="fill:rgb(68,68,68);fill-rule:nonzero;"/>
        <path d="M463.312,358.144C462.298,358.144 461.507,357.824 460.939,357.182C460.37,356.54 460.086,355.645 460.086,354.497C460.086,353.436 460.294,352.42 460.71,351.447C461.126,350.474 461.699,349.701 462.428,349.127C463.158,348.553 463.962,348.265 464.841,348.265C465.509,348.265 466.042,348.444 466.441,348.802C466.839,349.159 467.038,349.645 467.038,350.261C467.038,351.321 466.559,352.13 465.601,352.686C464.643,353.243 463.221,353.521 461.334,353.521L461.044,353.521C461.009,353.779 460.991,354.066 460.991,354.383C460.991,355.349 461.208,356.086 461.642,356.593C462.075,357.1 462.699,357.353 463.514,357.353C464.287,357.353 465.096,357.14 465.94,356.712L465.94,357.538C465.119,357.942 464.243,358.144 463.312,358.144ZM464.735,349.021C463.968,349.021 463.254,349.36 462.595,350.036C461.936,350.713 461.46,351.617 461.167,352.748L461.598,352.748C464.627,352.748 466.142,351.957 466.142,350.375C466.142,349.982 466.014,349.659 465.759,349.404C465.504,349.149 465.163,349.021 464.735,349.021Z" style="fill:rgb(68,68,68);fill-rule:nonzero;"/>
        <path d="M474.061,357.969L475.37,351.887C475.493,351.348 475.555,350.89 475.555,350.515C475.555,350.047 475.427,349.681 475.172,349.417C474.918,349.153 474.524,349.021 473.99,349.021C473.334,349.021 472.717,349.218 472.14,349.61C471.563,350.003 471.077,350.552 470.681,351.258C470.286,351.964 469.983,352.804 469.772,353.776L468.875,357.969L468.014,357.969L470.044,348.415L470.765,348.415L470.44,350.357L470.492,350.357C471.453,348.963 472.672,348.265 474.149,348.265C474.91,348.265 475.482,348.453 475.862,348.828C476.243,349.203 476.434,349.742 476.434,350.445C476.434,350.855 476.363,351.389 476.223,352.045L474.922,357.969L474.061,357.969Z" style="fill:rgb(68,68,68);fill-rule:nonzero;"/>
        <path d="M481.514,358.144C480.5,358.144 479.709,357.824 479.141,357.182C478.572,356.54 478.288,355.645 478.288,354.497C478.288,353.436 478.496,352.42 478.912,351.447C479.328,350.474 479.901,349.701 480.63,349.127C481.36,348.553 482.164,348.265 483.043,348.265C483.711,348.265 484.244,348.444 484.643,348.802C485.041,349.159 485.24,349.645 485.24,350.261C485.24,351.321 484.761,352.13 483.803,352.686C482.845,353.243 481.423,353.521 479.536,353.521L479.246,353.521C479.211,353.779 479.193,354.066 479.193,354.383C479.193,355.349 479.41,356.086 479.844,356.593C480.277,357.1 480.901,357.353 481.716,357.353C482.489,357.353 483.298,357.14 484.142,356.712L484.142,357.538C483.321,357.942 482.445,358.144 481.514,358.144ZM482.938,349.021C482.17,349.021 481.457,349.36 480.797,350.036C480.138,350.713 479.662,351.617 479.369,352.748L479.8,352.748C482.829,352.748 484.344,351.957 484.344,350.375C484.344,349.982 484.216,349.659 483.962,349.404C483.707,349.149 483.365,349.021 482.938,349.021Z" style="fill:rgb(68,68,68);fill-rule:nonzero;"/>
        <path d="M491.815,348.248C492.219,348.248 492.579,348.289 492.896,348.371L492.711,349.188C492.436,349.1 492.105,349.056 491.718,349.056C491.167,349.056 490.643,349.244 490.145,349.619C489.647,349.994 489.198,350.556 488.8,351.306C488.401,352.056 488.109,352.868 487.921,353.741L487.042,357.969L486.181,357.969L488.211,348.415L488.914,348.415L488.659,350.208L488.712,350.208C489.14,349.657 489.5,349.26 489.793,349.017C490.086,348.774 490.398,348.585 490.729,348.45C491.06,348.315 491.422,348.248 491.815,348.248Z" style="fill:rgb(68,68,68);fill-rule:nonzero;"/>
        <path d="M497.554,348.265C498.913,348.265 499.731,348.907 500.006,350.19L500.059,350.19L500.577,348.415L501.28,348.415L499.268,357.969L498.547,357.969L498.942,355.56L498.89,355.56C498.398,356.392 497.85,357.031 497.246,357.476C496.643,357.922 495.948,358.144 495.163,358.144C493.517,358.144 492.693,357.049 492.693,354.857C492.693,353.703 492.913,352.601 493.353,351.553C493.792,350.504 494.379,349.694 495.115,349.122C495.85,348.551 496.663,348.265 497.554,348.265ZM495.365,357.353C495.887,357.353 496.407,357.172 496.925,356.808C497.444,356.445 497.91,355.959 498.323,355.349C498.736,354.74 499.051,354.066 499.268,353.328C499.484,352.59 499.593,351.966 499.593,351.456C499.593,350.993 499.517,350.578 499.364,350.212C499.212,349.846 498.986,349.556 498.688,349.342C498.389,349.128 498.017,349.021 497.571,349.021C496.845,349.021 496.189,349.262 495.603,349.742C495.017,350.223 494.536,350.942 494.161,351.9C493.786,352.858 493.599,353.811 493.599,354.761C493.599,355.651 493.745,356.306 494.038,356.725C494.331,357.144 494.774,357.353 495.365,357.353Z" style="fill:rgb(68,68,68);fill-rule:nonzero;"/>
        <path d="M507.855,348.415L507.696,349.127L505.209,349.127L504.023,354.708C503.894,355.288 503.829,355.768 503.829,356.149C503.829,356.964 504.198,357.371 504.937,357.371C505.335,357.371 505.78,357.295 506.273,357.142L506.273,357.898C505.681,358.062 505.183,358.144 504.778,358.144C504.198,358.144 503.75,357.985 503.434,357.665C503.117,357.346 502.959,356.882 502.959,356.272C502.959,355.845 503.044,355.241 503.214,354.462L504.348,349.127L502.748,349.127L502.871,348.538L504.488,348.389L505.341,346.165L505.824,346.165L505.341,348.415L507.855,348.415Z" style="fill:rgb(68,68,68);fill-rule:nonzero;"/>
        <path d="M511.291,358.144C510.277,358.144 509.486,357.824 508.918,357.182C508.35,356.54 508.066,355.645 508.066,354.497C508.066,353.436 508.274,352.42 508.69,351.447C509.106,350.474 509.678,349.701 510.408,349.127C511.137,348.553 511.942,348.265 512.82,348.265C513.488,348.265 514.022,348.444 514.42,348.802C514.818,349.159 515.018,349.645 515.018,350.261C515.018,351.321 514.539,352.13 513.581,352.686C512.623,353.243 511.2,353.521 509.314,353.521L509.024,353.521C508.988,353.779 508.971,354.066 508.971,354.383C508.971,355.349 509.188,356.086 509.621,356.593C510.055,357.1 510.679,357.353 511.493,357.353C512.267,357.353 513.075,357.14 513.919,356.712L513.919,357.538C513.099,357.942 512.223,358.144 511.291,358.144ZM512.715,349.021C511.947,349.021 511.234,349.36 510.575,350.036C509.916,350.713 509.44,351.617 509.147,352.748L509.577,352.748C512.607,352.748 514.121,351.957 514.121,350.375C514.121,349.982 513.994,349.659 513.739,349.404C513.484,349.149 513.143,349.021 512.715,349.021Z" style="fill:rgb(68,68,68);fill-rule:nonzero;"/>
        <path d="M526.268,355.376C526.268,356.22 525.966,356.892 525.362,357.393C524.759,357.894 523.939,358.144 522.901,358.144C521.888,358.144 520.994,357.925 520.221,357.485L520.221,356.545C520.654,356.814 521.103,357.022 521.566,357.169C522.028,357.315 522.462,357.389 522.866,357.389C523.675,357.389 524.293,357.22 524.721,356.883C525.149,356.546 525.362,356.067 525.362,355.446C525.362,355.2 525.317,354.983 525.226,354.796C525.135,354.608 524.989,354.428 524.787,354.255C524.585,354.082 524.196,353.832 523.622,353.504C522.755,353.035 522.169,352.609 521.864,352.225C521.56,351.841 521.407,351.374 521.407,350.823C521.407,350.073 521.696,349.459 522.273,348.982C522.85,348.504 523.61,348.265 524.554,348.265C524.993,348.265 525.458,348.317 525.947,348.419C526.436,348.522 526.848,348.658 527.182,348.828L526.874,349.601C526.077,349.226 525.304,349.039 524.554,349.039C523.874,349.039 523.329,349.194 522.919,349.505C522.509,349.815 522.304,350.22 522.304,350.718C522.304,351.04 522.354,351.298 522.453,351.491C522.553,351.684 522.73,351.885 522.985,352.093C523.24,352.301 523.59,352.525 524.035,352.765C524.703,353.135 525.176,353.438 525.455,353.675C525.733,353.912 525.938,354.166 526.07,354.435C526.202,354.705 526.268,355.018 526.268,355.376Z" style="fill:rgb(68,68,68);fill-rule:nonzero;"/>
        <path d="M531.392,358.144C530.378,358.144 529.587,357.824 529.019,357.182C528.45,356.54 528.166,355.645 528.166,354.497C528.166,353.436 528.374,352.42 528.79,351.447C529.206,350.474 529.779,349.701 530.508,349.127C531.238,348.553 532.042,348.265 532.921,348.265C533.589,348.265 534.122,348.444 534.521,348.802C534.919,349.159 535.118,349.645 535.118,350.261C535.118,351.321 534.639,352.13 533.681,352.686C532.723,353.243 531.301,353.521 529.414,353.521L529.124,353.521C529.089,353.779 529.071,354.066 529.071,354.383C529.071,355.349 529.288,356.086 529.722,356.593C530.155,357.1 530.779,357.353 531.594,357.353C532.367,357.353 533.176,357.14 534.02,356.712L534.02,357.538C533.199,357.942 532.323,358.144 531.392,358.144ZM532.816,349.021C532.048,349.021 531.335,349.36 530.675,350.036C530.016,350.713 529.54,351.617 529.247,352.748L529.678,352.748C532.707,352.748 534.222,351.957 534.222,350.375C534.222,349.982 534.094,349.659 533.839,349.404C533.585,349.149 533.243,349.021 532.816,349.021Z" style="fill:rgb(68,68,68);fill-rule:nonzero;"/>
        <path d="M541.692,348.248C542.097,348.248 542.457,348.289 542.774,348.371L542.589,349.188C542.314,349.1 541.983,349.056 541.596,349.056C541.045,349.056 540.521,349.244 540.023,349.619C539.525,349.994 539.076,350.556 538.678,351.306C538.279,352.056 537.986,352.868 537.799,353.741L536.92,357.969L536.059,357.969L538.089,348.415L538.792,348.415L538.537,350.208L538.59,350.208C539.018,349.657 539.378,349.26 539.671,349.017C539.964,348.774 540.276,348.585 540.607,348.45C540.938,348.315 541.3,348.248 541.692,348.248Z" style="fill:rgb(68,68,68);fill-rule:nonzero;"/>
        <path d="M544.461,357.969L542.949,348.415L543.837,348.415L544.786,354.875C544.939,355.842 545.035,356.586 545.076,357.107L545.129,357.107C545.428,356.433 545.806,355.683 546.263,354.857L549.831,348.415L550.728,348.415L545.454,357.969L544.461,357.969Z" style="fill:rgb(68,68,68);fill-rule:nonzero;"/>
        <path d="M551.431,357.969L550.569,357.969L552.6,348.415L553.443,348.415L551.431,357.969ZM552.978,345.963C552.978,345.64 553.042,345.383 553.171,345.189C553.3,344.996 553.476,344.899 553.698,344.899C554.032,344.899 554.199,345.11 554.199,345.532C554.199,345.866 554.135,346.13 554.006,346.323C553.877,346.516 553.71,346.613 553.505,346.613C553.335,346.613 553.205,346.556 553.114,346.442C553.023,346.327 552.978,346.168 552.978,345.963Z" style="fill:rgb(68,68,68);fill-rule:nonzero;"/>
        <path d="M558.269,358.144C557.249,358.144 556.445,357.821 555.856,357.173C555.267,356.526 554.973,355.628 554.973,354.479C554.973,353.348 555.188,352.289 555.619,351.302C556.049,350.315 556.631,349.562 557.363,349.043C558.096,348.525 558.945,348.265 559.912,348.265C560.697,348.265 561.403,348.391 562.03,348.643L561.784,349.434C561.157,349.159 560.519,349.021 559.868,349.021C559.112,349.021 558.431,349.247 557.825,349.698C557.218,350.149 556.742,350.8 556.397,351.649C556.051,352.499 555.878,353.436 555.878,354.462C555.878,355.388 556.093,356.101 556.524,356.602C556.955,357.103 557.566,357.353 558.357,357.353C558.773,357.353 559.158,357.315 559.512,357.239C559.867,357.163 560.252,357.028 560.668,356.835L560.668,357.643C559.988,357.977 559.189,358.144 558.269,358.144Z" style="fill:rgb(68,68,68);fill-rule:nonzero;"/>
        <path d="M565.994,358.144C564.981,358.144 564.19,357.824 563.621,357.182C563.053,356.54 562.769,355.645 562.769,354.497C562.769,353.436 562.977,352.42 563.393,351.447C563.809,350.474 564.381,349.701 565.111,349.127C565.84,348.553 566.645,348.265 567.524,348.265C568.192,348.265 568.725,348.444 569.123,348.802C569.522,349.159 569.721,349.645 569.721,350.261C569.721,351.321 569.242,352.13 568.284,352.686C567.326,353.243 565.903,353.521 564.017,353.521L563.727,353.521C563.692,353.779 563.674,354.066 563.674,354.383C563.674,355.349 563.891,356.086 564.324,356.593C564.758,357.1 565.382,357.353 566.196,357.353C566.97,357.353 567.778,357.14 568.622,356.712L568.622,357.538C567.802,357.942 566.926,358.144 565.994,358.144ZM567.418,349.021C566.65,349.021 565.937,349.36 565.278,350.036C564.619,350.713 564.143,351.617 563.85,352.748L564.28,352.748C567.31,352.748 568.824,351.957 568.824,350.375C568.824,349.982 568.697,349.659 568.442,349.404C568.187,349.149 567.846,349.021 567.418,349.021Z" style="fill:rgb(68,68,68);fill-rule:nonzero;"/>
        <path d="M576.295,355.376C576.295,356.22 575.993,356.892 575.39,357.393C574.786,357.894 573.966,358.144 572.929,358.144C571.915,358.144 571.022,357.925 570.248,357.485L570.248,356.545C570.682,356.814 571.13,357.022 571.593,357.169C572.056,357.315 572.489,357.389 572.894,357.389C573.702,357.389 574.32,357.22 574.748,356.883C575.176,356.546 575.39,356.067 575.39,355.446C575.39,355.2 575.344,354.983 575.254,354.796C575.163,354.608 575.016,354.428 574.814,354.255C574.612,354.082 574.224,353.832 573.65,353.504C572.782,353.035 572.196,352.609 571.892,352.225C571.587,351.841 571.435,351.374 571.435,350.823C571.435,350.073 571.723,349.459 572.3,348.982C572.878,348.504 573.638,348.265 574.581,348.265C575.021,348.265 575.485,348.317 575.974,348.419C576.463,348.522 576.875,348.658 577.209,348.828L576.901,349.601C576.105,349.226 575.331,349.039 574.581,349.039C573.901,349.039 573.357,349.194 572.946,349.505C572.536,349.815 572.331,350.22 572.331,350.718C572.331,351.04 572.381,351.298 572.481,351.491C572.58,351.684 572.757,351.885 573.012,352.093C573.267,352.301 573.617,352.525 574.063,352.765C574.731,353.135 575.204,353.438 575.482,353.675C575.76,353.912 575.965,354.166 576.097,354.435C576.229,354.705 576.295,355.018 576.295,355.376Z" style="fill:rgb(68,68,68);fill-rule:nonzero;"/>
    </g>
</svg>
